<?xml version="1.0" encoding="UTF-8" standalone="no"?>
<!-- Created with Inkscape (http://www.inkscape.org/) -->

<svg
   xmlns:dc="http://purl.org/dc/elements/1.1/"
   xmlns:cc="http://creativecommons.org/ns#"
   xmlns:rdf="http://www.w3.org/1999/02/22-rdf-syntax-ns#"
   xmlns:svg="http://www.w3.org/2000/svg"
   xmlns="http://www.w3.org/2000/svg"
   xmlns:sodipodi="http://sodipodi.sourceforge.net/DTD/sodipodi-0.dtd"
   xmlns:inkscape="http://www.inkscape.org/namespaces/inkscape"
   width="340.89816"
   height="233.50792"
   id="svg2"
   version="1.1"
   inkscape:version="0.48.4 r9939"
   sodipodi:docname="liberant.svg"
   inkscape:export-filename="/home/cocco/liberant/codesession/liberant_logo/liberant.png"
   inkscape:export-xdpi="300"
   inkscape:export-ydpi="300">
  <defs
     id="defs4" />
  <sodipodi:namedview
     id="base"
     pagecolor="#ffffff"
     bordercolor="#666666"
     borderopacity="1.0"
     inkscape:pageopacity="0.0"
     inkscape:pageshadow="2"
     inkscape:zoom="2.0761681"
     inkscape:cx="238.01356"
     inkscape:cy="119.92257"
     inkscape:document-units="px"
     inkscape:current-layer="text3016"
     showgrid="false"
     fit-margin-top="50"
     fit-margin-left="50"
     fit-margin-right="50"
     fit-margin-bottom="50"
     inkscape:window-width="1600"
     inkscape:window-height="848"
     inkscape:window-x="0"
     inkscape:window-y="0"
     inkscape:window-maximized="1" />
  <metadata
     id="metadata7">
    <rdf:RDF>
      <cc:Work
         rdf:about="">
        <dc:format>image/svg+xml</dc:format>
        <dc:type
           rdf:resource="http://purl.org/dc/dcmitype/StillImage" />
        <dc:title></dc:title>
      </cc:Work>
    </rdf:RDF>
  </metadata>
  <g
     inkscape:label="Layer 1"
     inkscape:groupmode="layer"
     id="layer1"
     transform="translate(-151.05014,-669.88863)">
    <g
       id="g3012"
       transform="translate(28.168128,78.244796)"
       style="stroke:#800000">
      <path
         inkscape:connector-curvature="0"
         id="path3008"
         d="m 310.93887,727.43026 c 3.04195,-3.51264 5.37362,-6.86082 5.18149,-7.4404 -0.19213,-0.57958 -2.11269,-1.30273 -4.26793,-1.60701 -3.73866,-0.52782 -11.53109,-4.70172 -12.89356,-6.90625 -0.35369,-0.57229 -1.50741,-1.04052 -2.56382,-1.04052 -3.96271,0 -10.04081,-3.25322 -11.55737,-6.18594 -1.09761,-2.12254 -2.12781,-2.8513 -3.71158,-2.62556 -2.23973,0.31923 -2.28308,0.61889 -1.01485,7.01565 0.46494,2.34514 0.15685,2.78404 -2.32065,3.30588 -1.57122,0.33096 -6.36027,2.24949 -10.64232,4.26341 -6.01516,2.82903 -7.93067,4.23754 -8.42374,6.19412 -0.90725,3.60009 1.64351,7.23793 0.77816,10.44451 -0.5148,1.90758 -2.26168,8.3302 -4.54523,9.77286 -11.08357,1.80242 -11.06346,-3.91589 -1.01929,-4.56069 1.22114,-0.96615 2.09509,-3.57869 2.3031,-5.9255 0.52705,-5.94642 0.5076,-10.86375 -1.72786,-11.69874 -0.55623,-0.20776 -1.07959,0.46973 -1.07959,1.04384 0,0.57411 -0.7341,0.91161 -1.63133,0.75 -1.23445,-0.22236 -0.88517,5.0068 -8.77131,12.76802 -0.52605,0.51772 0.4966,1.42537 0.064,2.29717 -5.19565,1.55079 -3.67635,4.04315 -4.52532,4.21724 -1.60399,1.50471 -6.08451,1.57124 -8.27887,1.42388 -2.54083,-0.0994 -8.2803,-3.24723 5.37161,-4.49107 6.01473,-0.54801 11.77123,-16.72479 11.77123,-19.52956 0,-0.79278 1.2375,-1.71257 2.75,-2.04399 1.5125,-0.33142 3.24943,-0.75166 3.85984,-0.93388 0.61041,-0.18222 1.62291,-2.36891 2.25,-4.8593 2.16462,-8.5965 1.03437,-16.64235 -2.33786,-16.64235 -2.85457,0 -8.34738,4.16681 -9.60462,7.28599 -0.7125,1.76771 -2.78567,4.98284 -4.60703,7.14474 -1.82137,2.1619 -3.8517,5.4244 -4.51184,7.25 -0.72564,2.0067 -1.8802,3.31927 -2.91971,3.31927 -1.56555,0 -23.90734,13.6009 -27.65937,18.68128 -1.39082,1.88321 -1.44828,1.53203 -1.82486,0.68502 -0.40047,-0.90074 0.81852,0.64374 -1.40138,1.52606 -12.06729,4.79624 -8.30737,5.54356 -11.96144,3.05586 -0.99644,-3.63388 1.4762,-5.0859 4.32657,-5.09319 3.16551,-0.004 5.95973,0.2917 5.95973,-1.55433 0,-0.61578 1.35,-2.16061 3,-3.43295 1.65,-1.27235 8.05536,-4.20308 10.53036,-6.51274 2.475,-2.30966 10.66411,-5.07469 11.90161,-6.14451 1.2375,-1.06982 2.25,-2.43249 2.25,-3.02815 0,-0.59565 0.60653,-1.44287 1.34786,-1.8827 1.64035,-0.97323 10.65214,-13.16394 10.65214,-14.4097 0,-0.48949 -2.02153,-0.88999 -4.49229,-0.88999 -3.76417,0 -4.93925,0.50253 -7.25,3.10053 -1.51674,1.7053 -3.97286,3.7303 -5.45805,4.5 -3.10759,1.61053 -9.79966,1.88332 -9.79966,0.39947 0,-0.55 0.38863,-1 0.86364,-1 1.38286,0 6.13636,-5.14082 6.13636,-6.63636 0,-2.36945 -4.72037,-1.53459 -6.88539,1.21778 -2.55276,3.24532 -5.50326,2.86203 -5.92424,-0.76958 -0.25474,-2.19755 0.63164,-3.4127 5,-6.85458 5.74697,-4.52811 6.882,-6.30063 6.13715,-9.584 -0.61088,-2.69278 3.63299,-5.90002 9.18525,-6.94163 3.44201,-0.64573 3.70962,-0.87991 2.09797,-1.83588 -1.01601,-0.60266 -4.38156,-3.04317 -7.47901,-5.42336 l -5.63173,-4.3276 -6.5,0.67886 c -3.575,0.37337 -9.80209,1.30829 -13.83797,2.0776 -8.01781,1.52834 -24.14342,1.91928 -22.61203,0.54819 0.5225,-0.4678 7.925,-1.38672 16.45,-2.04204 8.525,-0.65532 17.78927,-1.63927 20.58727,-2.18656 6.65994,-1.30269 9.37652,-0.21366 16.5607,6.63889 5.72919,5.46473 8.21855,6.38485 11.91777,4.40509 1.62568,-0.87004 1.93426,-2.13688 1.93426,-7.94099 0,-3.79819 -0.45619,-7.18774 -1.01376,-7.53234 -0.55757,-0.34459 -4.27007,-1.51836 -8.25,-2.60836 -9.07361,-2.48504 -24.46335,-9.87172 -27.63604,-13.2646 -2.1079,-2.25418 -2.19818,-2.6437 -0.74228,-3.20238 1.68453,-0.64642 2.65726,-0.0908 10.64208,6.07914 5.59691,4.32475 12.95677,7.17579 22.86192,8.85617 l 7.63808,1.29578 -0.3597,8.15942 c -0.34425,7.80896 -0.25834,8.19758 2,9.04776 1.29783,0.48858 3.7097,0.69272 5.3597,0.45364 4.07981,-0.59115 6.63419,1.57632 7.39352,6.27363 0.48861,3.02255 1.13291,3.98982 2.81836,4.2311 3.67527,0.52614 6.04283,-1.55822 7.80864,-6.87458 0.92817,-2.79446 2.33098,-5.32773 3.11735,-5.62949 0.85421,-0.32779 3.73082,1.63428 7.14595,4.87409 6.98444,6.62589 14.90576,12.15029 16.52892,11.52742 0.66151,-0.25384 2.05526,-2.87999 3.09723,-5.83588 3.42227,-9.70838 6.2923,-14.289 12.95749,-20.6804 3.61689,-3.46833 7.5195,-7.63083 8.67245,-9.25 1.92613,-2.70499 2.58894,-2.94395 8.16587,-2.94395 l 6.06958,0 -0.62585,5.32504 c -0.43738,3.7214 -0.22325,5.87565 0.71104,7.15336 1.27116,1.73842 1.81138,1.62479 10.98717,-2.31102 17.21284,-7.38316 31.18074,-9.81463 40.89051,-7.11805 8.09312,2.24761 7.05691,9.05862 -2.91759,19.17742 -5.55695,5.63734 -8.83471,7.91541 -17.69134,12.29562 -5.97889,2.95697 -13.96639,6.17377 -17.75,7.14846 -7.33846,1.89043 -8.55692,3.50869 -5.18256,6.88306 1.40218,1.40218 2.86781,1.5879 8.44234,1.0698 3.71008,-0.34481 9.95096,-1.30121 13.86864,-2.12531 8.09758,-1.70338 16.77531,-1.93109 18.99228,-0.49838 1,0.64625 1.08333,0.97448 0.25,0.98469 -1.95868,0.024 -1.47074,2.59406 1.08,5.68858 9.43461,11.78397 12.49482,18.84591 15.06145,26.66543 1.37892,4.20103 3.36321,7.24735 6.62145,8.1744 15.65529,3.04192 -3.65956,7.44863 -7.24071,2.22424 -0.93708,-3.85776 -5.52149,-17.79183 -6.10967,-14.75857 -0.71109,3.6671 -4.19548,-4.89564 -7.66494,-10.47877 -2.39246,-3.85 -4.90363,-8.575 -5.58038,-10.5 l -1.23044,-3.5 -9.84338,0.0441 c -13.27891,0.0595 -25.55094,1.45968 -25.03812,2.85681 0.22188,0.60451 2.51344,3.27435 2.07582,6.18763 -1.12292,7.47549 -0.97896,26.92987 10.40435,27.37762 6.16274,0.24241 5.54182,2.31861 5.54182,3.2643 0,0.47173 -1.575,0.60209 -3.5,0.28971 -3.82592,-0.62086 -1.34534,-0.15822 1.37979,1.91044 2.48117,1.88348 1.15284,1.21335 -2.1851,-0.69479 -1.375,-0.78602 -3.73185,-1.44508 -5.23746,-1.46456 -2.0775,-0.0269 -3.52902,-1.95756 -5.40509,-4.92944 -1.35961,-2.15377 -2.08314,-5.91956 -2.65543,-6.27325 -0.57229,-0.35371 -1.89763,0.2549 -1.89763,-0.74273 0,-0.99762 0.24198,-19.17784 -0.89675,-21.75212 l -2.07041,-4.68052 -5.67959,0.0689 c -3.12377,0.0379 -6.80458,0.0443 -8.17958,0.0142 -1.375,-0.0301 -4.86802,0.0754 -7.76227,0.2345 -4.95828,0.27251 -5.4608,0.0726 -8.69902,-3.46078 -1.89021,-2.0625 -3.96907,-3.75 -4.61969,-3.75 -2.16445,0 -7.91902,4.13994 -7.91902,5.69708 0,0.84368 1.84922,3.22432 4.10938,5.29031 3.63288,3.32078 4.85155,3.81592 10.50973,4.27011 6.34006,0.50892 9.38089,1.86716 9.38089,4.19015 0,0.66152 -2.07312,3.86892 -4.60693,7.12756 -2.02636,2.60601 -4.5568,6.41602 -6.2698,9.3848 -0.42898,0.74346 -0.80669,1.43416 -1.11239,2.03999 -0.72903,4.00277 -1.46102,-2.13044 -2.82111,0.95283 -7.72176,17.50485 -20.45217,1.40604 -8.83238,2.48773 6.49182,0.60433 7.54873,-4.82103 13.14765,-11.44661 z m -47.06391,-14.52598 c 1.06762,-0.80751 2.70002,-1.4682 3.62755,-1.4682 0.92754,0 2.22844,-0.65309 2.89091,-1.4513 0.9807,-1.18168 0.52995,-2.12583 -2.42626,-5.08203 -4.04652,-4.04652 -5.84267,-3.66997 -6.86448,1.43909 -0.3147,1.5735 -0.86772,4.03841 -1.22893,5.47758 -0.75684,3.01551 0.86668,3.4557 4.00121,1.08486 z m 73.2817,-13.8577 c 1.09141,-1.09141 -1.03656,-2.6105 -3.65685,-2.6105 -4.12151,0 -9.06598,1.12603 -9.06598,2.06463 0,1.44089 11.34122,1.92748 12.72283,0.54587 z m -57.72283,-11.42341 c 0,-0.4471 -1.35,-2.10629 -3,-3.68709 l -3,-2.87418 0,3.02042 c 0,1.66124 0.3,3.32043 0.66667,3.68709 0.94849,0.9485 5.33333,0.82826 5.33333,-0.14624 z m 34.26007,-5.00389 c 1.38921,-2.09925 5.51516,-5.81175 9.16877,-8.25 l 6.64293,-4.4332 -0.62332,-6.5 c -0.34283,-3.575 -0.92678,-6.82031 -1.29768,-7.2118 -1.19374,-1.26 -7.03924,4.18336 -13.24036,12.32949 -4.71436,6.19303 -6.21145,9.02426 -6.82534,12.90771 -0.7441,4.70714 -0.66714,4.9746 1.43139,4.9746 1.46181,0 3.07874,-1.30101 4.74361,-3.8168 z"
         style="fill:#000000;stroke:#800000"
         sodipodi:nodetypes="ssssssssssssccssssscccsssssssssssssccsssssssssssssssssssscsssssssscssssscssssssssssssscsssssssssssscsccssscsssssssssscsscsscsssssssscsscsscsssssssssscscssscsssssss" />
    </g>
    <g
       transform="scale(1.0372467,0.9640908)"
       style="font-size:41.48986816px;font-style:normal;font-variant:normal;font-weight:normal;font-stretch:normal;line-height:125%;letter-spacing:0px;word-spacing:0px;fill:#ff0000;fill-opacity:1;stroke:#ff0000;stroke-width:1.0372467;font-family:Red October;-inkscape-font-specification:Red October"
       id="text3016">
      <path
         d="m 233.54438,872.48829 0,12.15653 -24.02264,0 0,-33.19189 7.42669,0 0,25.76521 9.21075,0 0,-4.72985 7.3852,0"
         style="fill:#337ab7;stroke:#000000;fill-opacity:1"
         id="path2988" />
      <path
         d="m 244.29868,851.41144 0,7.46817 -7.46817,0 0,-7.46817 7.46817,0 m 0,11.74163 0,21.45026 -7.46817,0 0,-21.45026 7.46817,0"
         style="fill:#337ab7;stroke:#000000;fill-opacity:1"
         id="path2990" />
      <path
         d="m 274.97979,864.81267 -3.65111,3.27769 3.65111,2.53089 0,13.98208 -26.88543,0 0,-33.1504 26.92692,0 -0.0415,13.35974 m -10.16502,6.59688 -9.29373,0 0,5.80859 11.45121,0 0,-3.77558 -2.15748,-2.03301 m 0,-7.42668 2.15748,-2.11599 0,-2.98727 -11.45121,0 0,5.10326 9.29373,0"
         style="fill:#337ab7;stroke:#000000;fill-opacity:1"
         id="path2992" />
      <path
         d="m 304.50826,851.41144 0,23.48326 -4.35644,0 2.98727,9.70863 -7.80009,0 -2.98727,-9.70863 -6.92881,0 0,9.70863 -7.42669,0 0,-33.19189 26.51203,0 m -7.42669,16.09807 0,-8.67139 -11.65865,0 0,8.67139 11.65865,0"
         id="path2994"
         style="fill:#337ab7;stroke:#000000;fill-opacity:1" />
      <path
         d="m 308.22225,884.64482 0,-33.19189 26.01415,0 0,7.42668 -18.58746,0 0,5.10326 14.52145,0 0,7.42668 -14.52145,0 0,5.80859 18.58746,0 0,7.42668 -26.01415,0"
         id="path2996"
         inkscape:connector-curvature="0"
         style="fill:#337ab7;stroke:#000000;fill-opacity:1" />
      <path
         d="m 342.50002,858.83812 -5.18624,0 0,-7.42668 25.55776,0 0,33.19189 -7.42669,0 0,-5.64262 -9.87458,0 0,5.64262 -7.42669,0 0,-13.06931 4.35644,-12.6959 m 12.94483,12.6959 0,-12.6959 -5.76709,0 -3.6926,12.6959 9.45969,0"
         style="fill:#000000;stroke:#000000"
         id="path2998"
         inkscape:connector-curvature="0" />
      <path
         d="m 375.12854,851.41144 0,3.98303 11.45121,6.5139 0,-10.49693 7.42668,0 0,33.19189 -7.42668,0 0,-13.65016 -11.45121,-6.51391 0,20.16407 -7.42668,0 0,-33.19189 7.42668,0"
         style="fill:#000000;stroke:#000000"
         id="path3000"
         inkscape:connector-curvature="0" />
      <path
         d="m 424.52483,858.83812 -9.12777,0 0,25.76521 -8.33946,0 0,-25.76521 -9.08628,0 0,-7.42668 26.55351,0 0,7.42668"
         style="fill:#000000;stroke:#000000"
         id="path3002"
         inkscape:connector-curvature="0" />
    </g>
  </g>
</svg>
